<svg width="92" height="92" viewBox="0 0 92 92" fill="none" xmlns="http://www.w3.org/2000/svg">
<circle cx="45.7735" cy="45.7735" r="39.5" transform="rotate(-10.0259 45.7735 45.7735)" fill="url(#paint0_linear_1941_3338)" fill-opacity="0.6"/>
<circle cx="45.7735" cy="45.7735" r="39.5" transform="rotate(-10.0259 45.7735 45.7735)" fill="white" fill-opacity="0.05"/>
<path d="M49.1227 68.2072C46.1244 68.847 43.2195 68.8533 40.408 68.2262C37.5966 67.5991 35.0664 66.4752 32.8173 64.8546C30.5681 63.234 28.673 61.1664 27.132 58.652C25.5909 56.1375 24.5903 53.3147 24.1301 50.1834C23.6699 47.0522 23.808 43.9863 24.5442 40.986C25.2805 37.9856 26.4733 35.2591 28.1228 32.8066C29.7723 30.3541 31.83 28.2513 34.2957 26.4981C36.7614 24.745 39.492 23.5488 42.4875 22.9097C45.483 22.2705 48.3879 22.2641 51.2022 22.8906C54.0165 23.5171 56.5468 24.641 58.793 26.2622C61.0392 27.8835 62.935 29.9508 64.4805 32.4644C66.0259 34.9779 67.0258 37.8009 67.4802 40.9334C67.9345 44.0659 67.7965 47.1317 67.066 50.1309C66.3356 53.13 65.1427 55.8565 63.4874 58.3102C61.8321 60.764 59.7746 62.8675 57.3149 64.621C54.8552 66.3744 52.1244 67.5698 49.1227 68.2072ZM48.4592 63.6774C53.3 62.6445 57.143 60.0143 59.9884 55.7869C62.8338 51.5595 63.8861 46.9166 63.1452 41.8584C63.1064 41.5942 63.0576 41.322 62.9987 41.0418C62.9398 40.7616 62.8959 40.5281 62.867 40.3412C62.8468 41.4744 62.4918 42.4844 61.8021 43.3712C61.1124 44.258 60.2257 44.817 59.1419 45.0483L54.8069 45.9733C53.6148 46.2277 52.5297 46.0022 51.5516 45.2969C50.5736 44.5915 49.9925 43.6154 49.8084 42.3685L49.4766 40.1037L40.8066 41.9537L40.1431 37.4239C39.9606 36.1782 40.2293 35.0216 40.9491 33.954C41.669 32.8863 42.6241 32.2247 43.8146 31.9692L45.9821 31.5067C45.8549 30.6385 45.9691 29.8262 46.3248 29.0698C46.6804 28.3135 47.1521 27.6577 47.7398 27.1026C46.9897 27.068 46.2364 27.073 45.48 27.1176C44.7236 27.1623 43.9472 27.2695 43.151 27.4394C38.3103 28.4723 34.4672 31.1025 31.6218 35.3299C28.7764 39.5574 27.7242 44.2002 28.4651 49.2584L39.3026 46.9459C41.6869 46.4372 43.8579 46.8887 45.8156 48.3006C47.7734 49.7124 48.9347 51.6641 49.2997 54.1554L49.6314 56.4203L43.1289 57.8078L44.0413 64.0362C44.7914 64.0708 45.526 64.0604 46.2451 64.0051C46.9642 63.9497 47.7023 63.8405 48.4592 63.6774Z" fill="white"/>
<defs>
<linearGradient id="paint0_linear_1941_3338" x1="45.7735" y1="6.27351" x2="45.7735" y2="85.2735" gradientUnits="userSpaceOnUse">
<stop stop-color="#13093B"/>
<stop offset="0.0001" stop-color="#3419A1" stop-opacity="0.6"/>
</linearGradient>
</defs>
</svg>
