<svg width="90" height="90" viewBox="0 0 90 90" fill="none" xmlns="http://www.w3.org/2000/svg">
<circle cx="44.7461" cy="44.7461" r="39.5" transform="rotate(8.22762 44.7461 44.7461)" fill="url(#paint0_linear_1941_3321)" fill-opacity="0.6"/>
<circle cx="44.7461" cy="44.7461" r="39.5" transform="rotate(8.22762 44.7461 44.7461)" fill="white" fill-opacity="0.05"/>
<g clip-path="url(#clip0_1941_3321)">
<path d="M48.1741 24.5297C49.5157 24.7237 50.7251 25.4441 51.5362 26.5326C52.3473 27.621 52.6937 28.9882 52.4992 30.3334C52.3047 31.6786 51.5852 32.8917 50.499 33.7058C49.4128 34.5199 48.0489 34.8682 46.7073 34.6742C45.3657 34.4802 44.1563 33.7598 43.3452 32.6714C42.5341 31.583 42.1877 30.2158 42.3822 28.8705C42.5767 27.5253 43.2962 26.3122 44.3824 25.4981C45.4686 24.6841 46.8325 24.3357 48.1741 24.5297ZM52.1865 50.3541C51.9 52.3354 50.6441 53.9339 48.9708 54.7357L48.4654 58.2308L38.3484 56.7679L38.8538 53.2728C37.4761 52.0299 36.7245 50.1411 37.0109 48.1598L37.4693 44.9896C38.0767 40.7892 41.9681 37.8727 46.1572 38.4784C50.3463 39.0841 53.2522 42.9835 52.6448 47.1839L52.1865 50.3541ZM52.2593 58.7794L52.5721 56.6157C54.4029 55.0599 55.6996 52.8444 56.072 50.2686L56.4387 47.7325C56.7447 45.6164 56.4531 43.5596 55.7036 41.7116C56.6325 41.4818 57.6163 41.4299 58.6201 41.5751C62.8092 42.1808 65.7151 46.0801 65.1078 50.2806L64.741 52.8167C64.4695 54.695 63.2126 56.1881 61.5769 56.8416L61.1117 60.0594L52.2593 58.7794ZM26.1674 51.7216C24.7838 50.6315 24.0014 48.8436 24.273 46.9652L24.6397 44.4291C25.2471 40.2287 29.1385 37.3122 33.3276 37.9179C34.3314 38.063 35.2591 38.3995 36.086 38.875C34.8449 40.4271 33.9814 42.325 33.6755 44.4411L33.3087 46.9772C32.9363 49.5529 33.5535 52.0371 34.8674 54.0557L34.5545 56.2193L25.7021 54.9393L26.1674 51.7216ZM35.1612 25.2373C35.7424 25.3213 36.3014 25.5193 36.8061 25.82C37.3109 26.1207 37.7516 26.5182 38.103 26.9897C38.4544 27.4613 38.7097 27.9977 38.8543 28.5683C38.9988 29.139 39.0299 29.7327 38.9456 30.3155C38.8613 30.8983 38.6634 31.4589 38.3631 31.9652C38.0628 32.4715 37.666 32.9136 37.1954 33.2663C36.7248 33.619 36.1896 33.8754 35.6203 34.0208C35.0511 34.1662 34.4589 34.1978 33.8777 34.1137C33.2964 34.0297 32.7374 33.8316 32.2327 33.5309C31.7279 33.2303 31.2873 32.8328 30.9358 32.3612C30.5844 31.8897 30.3291 31.3533 30.1846 30.7826C30.04 30.212 30.0089 29.6183 30.0932 29.0355C30.1775 28.4527 30.3754 27.8921 30.6757 27.3858C30.976 26.8795 31.3728 26.4373 31.8434 26.0846C32.314 25.7319 32.8492 25.4756 33.4185 25.3302C33.9877 25.1848 34.5799 25.1532 35.1612 25.2373ZM60.4537 28.8944C61.0349 28.9785 61.5939 29.1765 62.0987 29.4772C62.6034 29.7779 63.0441 30.1753 63.3955 30.6469C63.7469 31.1185 64.0022 31.6549 64.1468 32.2255C64.2914 32.7961 64.3224 33.3898 64.2381 33.9726C64.1538 34.5555 63.9559 35.1161 63.6556 35.6224C63.3553 36.1287 62.9585 36.5708 62.4879 36.9235C62.0173 37.2762 61.4821 37.5326 60.9129 37.6779C60.3436 37.8233 59.7514 37.8549 59.1702 37.7709C58.5889 37.6868 58.03 37.4888 57.5252 37.1881C57.0205 36.8874 56.5798 36.4899 56.2284 36.0184C55.8769 35.5468 55.6217 35.0104 55.4771 34.4398C55.3325 33.8692 55.3015 33.2755 55.3857 32.6926C55.47 32.1098 55.668 31.5492 55.9682 31.0429C56.2685 30.5366 56.6653 30.0945 57.1359 29.7418C57.6065 29.3891 58.1417 29.1327 58.711 28.9873C59.2803 28.842 59.8724 28.8104 60.4537 28.8944ZM21.9905 58.2864L63.7232 64.3207C64.7744 64.4727 65.4975 65.443 65.3451 66.4971C65.1927 67.5511 64.2243 68.2769 63.1731 68.1249L21.4404 62.0906C20.3892 61.9386 19.6661 60.9683 19.8185 59.9142C19.9709 58.8601 20.9393 58.1344 21.9905 58.2864Z" fill="white"/>
</g>
<defs>
<linearGradient id="paint0_linear_1941_3321" x1="44.7461" y1="5.24613" x2="44.7461" y2="84.2461" gradientUnits="userSpaceOnUse">
<stop stop-color="#13093B"/>
<stop offset="0.0001" stop-color="#3419A1" stop-opacity="0.6"/>
</linearGradient>
<clipPath id="clip0_1941_3321">
<rect width="46" height="41" fill="white" transform="translate(25.4109 21.2383) rotate(8.22762)"/>
</clipPath>
</defs>
</svg>
