<svg width="108" height="108" viewBox="0 0 108 108" fill="none" xmlns="http://www.w3.org/2000/svg">
<circle cx="53.9264" cy="53.9264" r="39.5" transform="rotate(-29.8751 53.9264 53.9264)" fill="url(#paint0_linear_1941_3316)" fill-opacity="0.6"/>
<circle cx="53.9264" cy="53.9264" r="39.5" transform="rotate(-29.8751 53.9264 53.9264)" fill="white" fill-opacity="0.05"/>
<path d="M47.7921 83.5192L41.9812 71.3372C41.6543 70.6518 41.4794 69.9069 41.4565 69.1024C41.4336 68.2979 41.5739 67.5399 41.8775 66.8286L43.0476 64.0367C44.6201 66.7771 46.1024 69.0103 47.4943 70.7363C48.8862 72.4624 50.6266 74.2435 52.7156 76.0798L47.7921 83.5192ZM54.7658 73.2259C52.6894 71.6543 50.8042 69.7683 49.1101 67.5677C47.4159 65.3671 45.9232 62.9132 44.6319 60.2061C42.5887 55.9227 41.3698 51.3998 40.9753 46.6376C40.5808 41.8754 41.0711 37.7188 42.4462 34.1679C45.6865 34.5241 48.9156 36.1076 52.1336 38.9184C55.3515 41.7293 57.9811 45.2761 60.0226 49.559C61.2975 52.2318 62.2936 54.9955 63.0109 57.85C63.7281 60.7046 64.1434 63.6413 64.2567 66.6602L54.7658 73.2259ZM52.646 55.5507C53.5865 54.9001 54.2001 53.9406 54.4866 52.6722C54.7732 51.4039 54.6458 50.204 54.1046 49.0726C53.5634 47.9412 52.7672 47.205 51.716 46.8639C50.6648 46.5229 49.6671 46.6771 48.723 47.3266C47.7789 47.9761 47.1662 48.9359 46.8851 50.2059C46.6039 51.476 46.7303 52.6756 47.2643 53.8047C47.7984 54.9338 48.5955 55.6703 49.6557 56.0143C50.7159 56.3582 51.7126 56.2037 52.646 55.5507ZM75.1533 64.591L67.3367 65.9651C67.0718 62.8669 66.671 60.159 66.1341 57.8415C65.5972 55.524 64.742 52.857 63.5684 49.8405L66.1606 50.0298C66.8249 50.0716 67.4398 50.307 68.0054 50.7361C68.5709 51.1652 69.0166 51.7228 69.3424 52.409L75.1533 64.591Z" fill="white"/>
<defs>
<linearGradient id="paint0_linear_1941_3316" x1="53.9264" y1="14.4264" x2="53.9264" y2="93.4264" gradientUnits="userSpaceOnUse">
<stop stop-color="#13093B"/>
<stop offset="0.0001" stop-color="#3419A1" stop-opacity="0.6"/>
</linearGradient>
</defs>
</svg>
